<svg width="48" height="48" viewBox="0 0 48 48" fill="none" xmlns="http://www.w3.org/2000/svg">
<g clip-path="url(#clip0_21_1191)">
<circle cx="24" cy="24" r="24" fill="white"/>
<path d="M24 36L23.8666 35.7999C22.9404 34.4106 22.4773 33.716 21.8654 33.2131C21.3238 32.7679 20.6996 32.4339 20.0288 32.2301C19.271 32 18.4361 32 16.7664 32H14.9333C13.4398 32 12.6931 32 12.1227 31.7094C11.6209 31.4537 11.2129 31.0457 10.9573 30.544C10.6666 29.9735 10.6666 29.2268 10.6666 27.7333V16.2667C10.6666 14.7732 10.6666 14.0265 10.9573 13.456C11.2129 12.9543 11.6209 12.5463 12.1227 12.2906C12.6931 12 13.4398 12 14.9333 12H15.4666C18.4536 12 19.947 12 21.0879 12.5813C22.0914 13.0926 22.9073 13.9085 23.4187 14.9121C24 16.0529 24 17.5464 24 20.5333M24 36V20.5333M24 36L24.1334 35.7999C25.0596 34.4106 25.5227 33.716 26.1345 33.2131C26.6761 32.7679 27.3003 32.4339 27.9712 32.2301C28.729 32 29.5638 32 31.2335 32H33.0666C34.5601 32 35.3068 32 35.8773 31.7094C36.379 31.4537 36.787 31.0457 37.0426 30.544C37.3333 29.9735 37.3333 29.2268 37.3333 27.7333V16.2667C37.3333 14.7732 37.3333 14.0265 37.0426 13.456C36.787 12.9543 36.379 12.5463 35.8773 12.2906C35.3068 12 34.5601 12 33.0666 12H32.5333C29.5463 12 28.0529 12 26.912 12.5813C25.9085 13.0926 25.0926 13.9085 24.5813 14.9121C24 16.0529 24 17.5464 24 20.5333" stroke="black" stroke-width="2" stroke-linecap="round" stroke-linejoin="round"/>
</g>
<defs>
<clipPath id="clip0_21_1191">
<rect width="48" height="48" fill="white"/>
</clipPath>
</defs>
</svg>
